<svg width="1536" height="168" viewBox="0 0 1536 168" fill="none" xmlns="http://www.w3.org/2000/svg">
<path d="M0 163.2V4.48001H39.68V25.28H45.44C48 19.7333 52.8 14.5067 59.84 9.60001C66.88 4.48001 77.5467 1.92001 91.84 1.92001C104.213 1.92001 114.987 4.80001 124.16 10.56C133.547 16.1067 140.8 23.8933 145.92 33.92C151.04 43.7333 153.6 55.2533 153.6 68.48V163.2H113.28V71.68C113.28 59.7333 110.293 50.7733 104.32 44.8C98.56 38.8267 90.24 35.84 79.36 35.84C66.9867 35.84 57.3867 40 50.56 48.32C43.7333 56.4267 40.32 67.84 40.32 82.56V163.2H0Z" fill="#EFFFE6"/>
<path d="M263.108 167.68C247.321 167.68 233.348 164.373 221.188 157.76C209.241 150.933 199.854 141.44 193.028 129.28C186.414 116.907 183.108 102.4 183.108 85.76V81.92C183.108 65.28 186.414 50.88 193.028 38.72C199.641 26.3467 208.921 16.8533 220.868 10.24C232.814 3.41334 246.681 0 262.467 0C278.041 0 291.588 3.52 303.108 10.56C314.628 17.3867 323.588 26.9867 329.988 39.36C336.388 51.52 339.588 65.7067 339.588 81.92V95.68H224.068C224.494 106.56 228.548 115.413 236.228 122.24C243.908 129.067 253.294 132.48 264.388 132.48C275.694 132.48 284.014 130.027 289.348 125.12C294.681 120.213 298.734 114.773 301.508 108.8L334.468 126.08C331.481 131.627 327.108 137.707 321.348 144.32C315.801 150.72 308.334 156.267 298.948 160.96C289.561 165.44 277.614 167.68 263.108 167.68ZM224.388 65.6H298.628C297.774 56.4267 294.041 49.0667 287.428 43.52C281.028 37.9733 272.601 35.2 262.148 35.2C251.268 35.2 242.628 37.9733 236.228 43.52C229.828 49.0667 225.881 56.4267 224.388 65.6Z" fill="#EFFFE6"/>
<path d="M444.595 167.68C428.808 167.68 414.622 164.48 402.035 158.08C389.448 151.68 379.528 142.4 372.275 130.24C365.022 118.08 361.395 103.467 361.395 86.4V81.28C361.395 64.2133 365.022 49.6 372.275 37.44C379.528 25.28 389.448 16 402.035 9.60001C414.622 3.2 428.808 0 444.595 0C460.382 0 474.568 3.2 487.155 9.60001C499.742 16 509.662 25.28 516.915 37.44C524.168 49.6 527.795 64.2133 527.795 81.28V86.4C527.795 103.467 524.168 118.08 516.915 130.24C509.662 142.4 499.742 151.68 487.155 158.08C474.568 164.48 460.382 167.68 444.595 167.68ZM444.595 131.84C456.968 131.84 467.208 127.893 475.315 120C483.422 111.893 487.475 100.373 487.475 85.44V82.24C487.475 67.3067 483.422 55.8933 475.315 48C467.422 39.8933 457.182 35.84 444.595 35.84C432.222 35.84 421.982 39.8933 413.875 48C405.768 55.8933 401.715 67.3067 401.715 82.24V85.44C401.715 100.373 405.768 111.893 413.875 120C421.982 127.893 432.222 131.84 444.595 131.84Z" fill="#EFFFE6"/>
<path d="M634.773 167.68C619.626 167.68 605.972 164.48 593.812 158.08C581.866 151.467 572.372 142.08 565.333 129.92C558.506 117.76 555.092 103.36 555.092 86.72V83.2C555.092 66.3467 558.506 51.9467 565.333 40C572.372 27.84 581.866 18.56 593.812 12.16C605.972 5.54667 619.626 2.24001 634.773 2.24001C649.706 2.24001 662.399 5.01334 672.852 10.56C683.519 16.1067 691.839 23.4667 697.812 32.64C703.999 41.8133 707.946 51.6267 709.653 62.08L685.013 67.2C683.946 59.52 681.386 52.48 677.333 46.08C673.492 39.68 668.052 34.56 661.013 30.72C653.973 26.88 645.332 24.96 635.092 24.96C624.639 24.96 615.253 27.3067 606.932 32C598.826 36.6933 592.319 43.4133 587.412 52.16C582.719 60.9067 580.372 71.36 580.372 83.52V86.4C580.372 98.56 582.719 109.013 587.412 117.76C592.319 126.507 598.826 133.227 606.932 137.92C615.253 142.613 624.639 144.96 635.092 144.96C650.666 144.96 662.506 140.907 670.612 132.8C678.932 124.693 684.052 114.667 685.972 102.72L710.932 108.16C708.586 118.4 704.319 128.107 698.133 137.28C691.946 146.453 683.519 153.813 672.852 159.36C662.399 164.907 649.706 167.68 634.773 167.68Z" fill="#EFFFE6"/>
<path d="M823.142 167.68C807.356 167.68 793.382 164.373 781.222 157.76C769.276 151.147 759.889 141.867 753.062 129.92C746.449 117.76 743.142 103.467 743.142 87.04V82.88C743.142 66.6667 746.449 52.48 753.062 40.32C759.889 28.16 769.276 18.7733 781.222 12.16C793.382 5.54667 807.356 2.24001 823.142 2.24001C838.929 2.24001 852.796 5.54667 864.742 12.16C876.902 18.7733 886.289 28.16 892.902 40.32C899.729 52.48 903.142 66.6667 903.142 82.88V87.04C903.142 103.467 899.729 117.76 892.902 129.92C886.289 141.867 876.902 151.147 864.742 157.76C852.796 164.373 838.929 167.68 823.142 167.68ZM823.142 144.96C839.782 144.96 853.009 139.733 862.823 129.28C872.849 118.613 877.862 104.32 877.862 86.4V83.52C877.862 65.6 872.849 51.4133 862.823 40.96C853.009 30.2933 839.782 24.96 823.142 24.96C806.716 24.96 793.489 30.2933 783.462 40.96C773.436 51.4133 768.422 65.6 768.422 83.52V86.4C768.422 104.32 773.436 118.613 783.462 129.28C793.489 139.733 806.716 144.96 823.142 144.96Z" fill="#EFFFE6"/>
<path d="M1008.48 167.68C989.062 167.68 972.635 163.2 959.195 154.24C945.968 145.28 937.968 131.093 935.195 111.68L959.195 106.24C960.902 116.48 964.102 124.587 968.795 130.56C973.488 136.32 979.248 140.48 986.075 143.04C993.115 145.387 1000.58 146.56 1008.48 146.56C1020.21 146.56 1029.49 144.213 1036.32 139.52C1043.14 134.827 1046.56 128.533 1046.56 120.64C1046.56 112.533 1043.25 106.88 1036.64 103.68C1030.23 100.267 1021.38 97.4933 1010.08 95.36L996.955 93.12C986.928 91.4133 977.755 88.7467 969.435 85.12C961.115 81.4933 954.502 76.5867 949.595 70.4C944.688 64.2133 942.235 56.4267 942.235 47.04C942.235 32.96 947.675 21.9733 958.555 14.08C969.435 6.18668 983.835 2.24001 1001.76 2.24001C1019.46 2.24001 1033.76 6.29334 1044.64 14.4C1055.73 22.2933 1062.88 33.4933 1066.08 48L1042.4 54.08C1040.47 42.7733 1035.89 34.88 1028.64 30.4C1021.38 25.7067 1012.42 23.36 1001.76 23.36C991.088 23.36 982.662 25.3867 976.475 29.44C970.288 33.28 967.195 39.04 967.195 46.72C967.195 54.1867 970.075 59.7333 975.835 63.36C981.808 66.7733 989.702 69.3333 999.515 71.04L1012.64 73.28C1023.73 75.2 1033.65 77.8667 1042.4 81.28C1051.35 84.48 1058.4 89.1733 1063.52 95.36C1068.85 101.547 1071.52 109.653 1071.52 119.68C1071.52 135.04 1065.76 146.88 1054.23 155.2C1042.93 163.52 1027.68 167.68 1008.48 167.68Z" fill="#EFFFE6"/>
<path d="M1110.98 163.2V6.72001H1135.62V26.24H1140.1C1143.09 20.6933 1148 15.5733 1154.82 10.88C1161.65 6.18668 1171.25 3.84001 1183.62 3.84001C1195.79 3.84001 1205.6 6.50668 1213.06 11.84C1220.74 17.1733 1226.29 23.68 1229.7 31.36H1234.18C1237.81 23.68 1243.25 17.1733 1250.51 11.84C1257.97 6.50668 1268.32 3.84001 1281.54 3.84001C1292 3.84001 1301.17 5.97334 1309.06 10.24C1316.96 14.5067 1323.15 20.6933 1327.62 28.8C1332.32 36.6933 1334.66 46.1867 1334.66 57.28V163.2H1309.39V59.52C1309.39 49.0667 1306.29 40.8533 1300.1 34.88C1294.13 28.6933 1285.7 25.6 1274.82 25.6C1263.3 25.6 1253.81 29.3333 1246.34 36.8C1239.09 44.2667 1235.46 55.04 1235.46 69.12V163.2H1210.18V59.52C1210.18 49.0667 1207.09 40.8533 1200.9 34.88C1194.93 28.6933 1186.51 25.6 1175.62 25.6C1164.1 25.6 1154.61 29.3333 1147.14 36.8C1139.89 44.2667 1136.26 55.04 1136.26 69.12V163.2H1110.98Z" fill="#EFFFE6"/>
<path d="M1455.42 167.68C1439.63 167.68 1425.66 164.373 1413.5 157.76C1401.55 151.147 1392.16 141.867 1385.34 129.92C1378.72 117.76 1375.42 103.467 1375.42 87.04V82.88C1375.42 66.6667 1378.72 52.48 1385.34 40.32C1392.16 28.16 1401.55 18.7733 1413.5 12.16C1425.66 5.54667 1439.63 2.24001 1455.42 2.24001C1471.2 2.24001 1485.07 5.54667 1497.02 12.16C1509.18 18.7733 1518.56 28.16 1525.18 40.32C1532 52.48 1535.42 66.6667 1535.42 82.88V87.04C1535.42 103.467 1532 117.76 1525.18 129.92C1518.56 141.867 1509.18 151.147 1497.02 157.76C1485.07 164.373 1471.2 167.68 1455.42 167.68ZM1455.42 144.96C1472.06 144.96 1485.28 139.733 1495.1 129.28C1505.12 118.613 1510.14 104.32 1510.14 86.4V83.52C1510.14 65.6 1505.12 51.4133 1495.1 40.96C1485.28 30.2933 1472.06 24.96 1455.42 24.96C1438.99 24.96 1425.76 30.2933 1415.74 40.96C1405.71 51.4133 1400.7 65.6 1400.7 83.52V86.4C1400.7 104.32 1405.71 118.613 1415.74 129.28C1425.76 139.733 1438.99 144.96 1455.42 144.96Z" fill="#EFFFE6"/>
</svg>
