<?xml version="1.0" encoding="UTF-8"?>
<svg width="24px" height="24px" viewBox="0 0 24 24" version="1.1" xmlns="http://www.w3.org/2000/svg" xmlns:xlink="http://www.w3.org/1999/xlink">
    <title>misc/employee-directory</title>
    <g id="misc" stroke="none" stroke-width="1" fill="none" fill-rule="evenodd">
        <g id="misc/employee-directory">
            <g id="helper/container/default">
                <rect id="CONTAINER" x="0" y="0" width="24" height="24" rx="3"></rect>
            </g>
            <g id="Group">
                <polygon id="Path" points="0 0 24 0 24 24 0 24"></polygon>
                <path d="M6.14285714,3 L18.7142857,3 C19.9766509,3 21,4.00735931 21,5.25 L21,18.75 C21,19.9926407 19.9766509,21 18.7142857,21 L6.14285714,21 C5.51167457,21 5,20.4963203 5,19.875 L5,4.125 C5,3.50367966 5.51167457,3 6.14285714,3" id="Shape" stroke="#000000" stroke-width="1.5" stroke-linecap="round" stroke-linejoin="round"></path>
                <line x1="3" y1="12" x2="7" y2="12" id="Line" stroke="#000000" stroke-width="1.5" stroke-linecap="square"></line>
                <line x1="3" y1="6.5" x2="7" y2="6.5" id="Line-Copy-3" stroke="#000000" stroke-width="1.5" stroke-linecap="square"></line>
                <line x1="3" y1="17.5" x2="7" y2="17.5" id="Line-Copy-2" stroke="#000000" stroke-width="1.5" stroke-linecap="square"></line>
                <circle id="Oval" stroke="#000000" stroke-width="1.5" stroke-linecap="round" stroke-linejoin="round" cx="14" cy="9.5" r="2"></circle>
                <path d="M11,16.5 L11,15.5 C11,14.3954305 11.8954305,13.5 13,13.5 L15,13.5 C16.1045695,13.5 17,14.3954305 17,15.5 L17,16.5" id="Path" stroke="#000000" stroke-width="1.5" stroke-linecap="round" stroke-linejoin="round"></path>
            </g>
        </g>
    </g>
</svg>