<?xml version="1.0" encoding="UTF-8"?>
<svg width="24px" height="24px" viewBox="0 0 24 24" version="1.1" xmlns="http://www.w3.org/2000/svg" xmlns:xlink="http://www.w3.org/1999/xlink">
    <title>cards/lock2-community</title>
    <g id="cards/lock2-community" stroke="none" stroke-width="1" fill="none" fill-rule="evenodd">
        <g id="helper/container/default">
            <rect id="CONTAINER" x="0" y="0" width="24" height="24" rx="2"></rect>
        </g>
        <g id="Group">
            <polygon id="Path" points="0 0 24 0 24 24 0 24"></polygon>
            <path d="M11.5,21 L7,21 C5.8954305,21 5,20.1045695 5,19 L5,13 C5,11.8954305 5.8954305,11 7,11 L17,11 C18.1045695,11 19,11.8954305 19,13 L19,13.5" id="Path" stroke="#000000" stroke-width="1.5" stroke-linecap="round" stroke-linejoin="round"></path>
            <path d="M11,16 C11,16.5522847 11.4477153,17 12,17 C12.5522847,17 13,16.5522847 13,16 C13,15.4477153 12.5522847,15 12,15 C11.4477153,15 11,15.4477153 11,16" id="Path" stroke="#000000" stroke-width="1.5" stroke-linecap="round" stroke-linejoin="round"></path>
            <path d="M8,11 L8,7 C8,4.790861 9.790861,3 12,3 C14.209139,3 16,4.790861 16,7 L16,11" id="Path" stroke="#000000" stroke-width="1.5" stroke-linecap="round" stroke-linejoin="round"></path>
        </g>
        <g id="Group" transform="translate(13.5, 16)" stroke="#000000" stroke-linecap="round" stroke-linejoin="round">
            <path d="M3.5,3 C3.5,3.55228475 3.94771525,4 4.5,4 C5.05228475,4 5.5,3.55228475 5.5,3 C5.5,2.44771525 5.05228475,2 4.5,2 C3.94771525,2 3.5,2.44771525 3.5,3" id="Path" stroke-width="0.75"></path>
            <path d="M9,3 C7.8,5 6.3,6 4.5,6 C2.7,6 1.2,5 0,3 C1.2,1 2.7,0 4.5,0 C6.3,0 7.8,1 9,3" id="Path" stroke-width="1.5"></path>
        </g>
    </g>
</svg>