<?xml version="1.0" encoding="UTF-8"?>
<svg width="24px" height="24px" viewBox="0 0 24 24" version="1.1" xmlns="http://www.w3.org/2000/svg" xmlns:xlink="http://www.w3.org/1999/xlink">
    <title>misc/wiki</title>
    <g id="misc" stroke="none" stroke-width="1" fill="none" fill-rule="evenodd">
        <g id="misc/wiki">
            <g id="helper/container/default">
                <rect id="CONTAINER" x="0" y="0" width="24" height="24" rx="3"></rect>
            </g>
            <g id="Group">
                <polygon id="Path" points="0 0 24 0 24 24 0 24"></polygon>
                <path d="M15,21 L6,21 C4.34314575,21 3,19.6568542 3,18 L3,17 L13,17 L13,19 C13,20.1045695 13.8954305,21 15,21 C16.1045695,21 17,20.1045695 17,19 L17,5 C17,3.8954305 17.8954305,3 19,3 C20.1045695,3 21,3.8954305 21,5 C21,6.1045695 20.1045695,7 19,7 L17,7 M19,3 L8,3 C6.34314575,3 5,4.34314575 5,6 L5,17" id="Shape" stroke="#000000" stroke-width="1.5" stroke-linecap="round" stroke-linejoin="round"></path>
                <line x1="9" y1="7" x2="13" y2="7" id="Path" stroke="#000000" stroke-width="1.5" stroke-linecap="round" stroke-linejoin="round"></line>
                <line x1="9" y1="11" x2="13" y2="11" id="Path" stroke="#000000" stroke-width="1.5" stroke-linecap="round" stroke-linejoin="round"></line>
            </g>
        </g>
    </g>
</svg>