<?xml version="1.0" encoding="UTF-8"?>
<svg width="24px" height="24px" viewBox="0 0 24 24" version="1.1" xmlns="http://www.w3.org/2000/svg" xmlns:xlink="http://www.w3.org/1999/xlink">
    <title>misc/my-reports</title>
    <g id="misc" stroke="none" stroke-width="1" fill="none" fill-rule="evenodd">
        <g id="misc/my-reports">
            <g id="helper/container/default">
                <rect id="CONTAINER" x="0" y="0" width="24" height="24" rx="3"></rect>
            </g>
            <g id="Group">
                <polygon id="Path" points="0 0 24 0 24 24 0 24"></polygon>
                <path d="M4,21 L4,8 C4,6.34314575 5.34314575,5 7,5 L17,5 C18.6568542,5 20,6.34314575 20,8 L20,14 C20,15.6568542 18.6568542,17 17,17 L8,17 L4,21" id="Path" stroke="#000000" stroke-width="1.5" stroke-linecap="round" stroke-linejoin="round"></path>
                <line x1="12" y1="8" x2="12" y2="11" id="Path" stroke="#000000" stroke-width="1.5" stroke-linecap="round" stroke-linejoin="round"></line>
                <line x1="12" y1="14" x2="12" y2="14.01" id="Path" stroke="#000000" stroke-width="1.5" stroke-linecap="round" stroke-linejoin="round"></line>
                <path d="M20.5,1 C20.9142136,1 21.2892136,1.16789322 21.5606602,1.43933983 C21.8321068,1.71078644 22,2.08578644 22,2.5 C22,2.91421356 21.8321068,3.28921356 21.5606602,3.56066017 C21.2892136,3.83210678 20.9142136,4 20.5,4 C20.0857864,4 19.7107864,3.83210678 19.4393398,3.56066017 C19.1678932,3.28921356 19,2.91421356 19,2.5 C19,2.08578644 19.1678932,1.71078644 19.4393398,1.43933983 C19.7107864,1.16789322 20.0857864,1 20.5,1 L20.5,1 L20.5,1 Z" id="Oval" stroke="#000000" fill="#000000"></path>
            </g>
        </g>
    </g>
</svg>