<?xml version="1.0" encoding="UTF-8"?>
<svg width="24px" height="24px" viewBox="0 0 24 24" version="1.1" xmlns="http://www.w3.org/2000/svg" xmlns:xlink="http://www.w3.org/1999/xlink">
    <title>file-types/png-file</title>
    <g id="file-types/png-file" stroke="none" stroke-width="1" fill="none" fill-rule="evenodd">
        <g id="helper/container/default">
            <rect id="CONTAINER" x="0" y="0" width="24" height="24" rx="2"></rect>
        </g>
        <path d="M14,3 L14,7 C14,7.55228475 14.4477153,8 15,8 L19,8" id="Path" stroke="#5CB060" stroke-width="1.5" stroke-linecap="round" stroke-linejoin="round"></path>
        <path d="M17,21 L7,21 C5.8954305,21 5,20.1045695 5,19 L5,5 C5,3.8954305 5.8954305,3 7,3 L14,3 L19,8 L19,19 C19,20.1045695 18.1045695,21 17,21 Z" id="Path" stroke="#5CB060" stroke-width="1.5" stroke-linecap="round" stroke-linejoin="round"></path>
        <g id="Group" transform="translate(8, 10)" stroke="#5CB060" stroke-linecap="round" stroke-linejoin="round">
            <polygon id="Path" points="0 0 1 0 1 1 0 1"></polygon>
            <polygon id="Path" points="0 3.5 1 3.5 1 4.5 0 4.5"></polygon>
            <polygon id="Path" points="0 7 1 7 1 8 0 8"></polygon>
            <polygon id="Path" points="3.5 7 4.5 7 4.5 8 3.5 8"></polygon>
            <polygon id="Path" points="7 7 8 7 8 8 7 8"></polygon>
            <polygon id="Path" points="3.5 3.5 4.5 3.5 4.5 4.5 3.5 4.5"></polygon>
            <polygon id="Path" points="7 3.5 8 3.5 8 4.5 7 4.5"></polygon>
            <polygon id="Path" points="3.5 0 4.5 0 4.5 1 3.5 1"></polygon>
            <polygon id="Path" points="7 0 8 0 8 1 7 1"></polygon>
            <polygon id="Path" points="5.25 1.75 6.25 1.75 6.25 2.75 5.25 2.75"></polygon>
            <polygon id="Path" points="1.75 1.75 2.75 1.75 2.75 2.75 1.75 2.75"></polygon>
            <polygon id="Path" points="1.75 5.25 2.75 5.25 2.75 6.25 1.75 6.25"></polygon>
            <polygon id="Path" points="5.25 5.25 6.25 5.25 6.25 6.25 5.25 6.25"></polygon>
        </g>
    </g>
</svg>