<?xml version="1.0" encoding="UTF-8"?>
<svg width="24px" height="24px" viewBox="0 0 24 24" version="1.1" xmlns="http://www.w3.org/2000/svg" xmlns:xlink="http://www.w3.org/1999/xlink">
    <title>file-types/zip</title>
    <g id="file-types" stroke="none" stroke-width="1" fill="none" fill-rule="evenodd">
        <g id="file-types/zip">
            <g id="helper/container/default">
                <rect id="CONTAINER" x="0" y="0" width="24" height="24" rx="3"></rect>
            </g>
            <g id="Group">
                <polygon id="Path" points="0 0 24 0 24 24 0 24"></polygon>
                <path d="M5.99999782,20.735 C5.38028444,20.3772081 4.99894525,19.7155846 4.99999782,19 L4.99999782,5 C4.99999782,3.8954305 5.8954305,3 6.99999782,3 L13.9999978,3 L18.9999978,8 L18.9999978,19 C18.9999978,20.1045695 18.1045695,21 16.9999978,21 L15.9999978,21" id="Path" stroke="#FF7900" stroke-width="1.5" stroke-linecap="round" stroke-linejoin="round"></path>
                <path d="M11,17 C12.1045695,17 13,17.8954305 13,19 L13,21 C13,21.5522847 12.5522847,22 12,22 L10,22 C9.44771525,22 9,21.5522847 9,21 L9,19 C9,17.8954305 9.8954305,17 11,17 Z" id="Path" stroke="#FF7900" stroke-width="1.5" stroke-linecap="round" stroke-linejoin="round"></path>
                <line x1="11" y1="5" x2="10" y2="5" id="Path" stroke="#FF7900" stroke-width="1.5" stroke-linecap="round" stroke-linejoin="round"></line>
                <line x1="13" y1="7" x2="12" y2="7" id="Path" stroke="#FF7900" stroke-width="1.5" stroke-linecap="round" stroke-linejoin="round"></line>
                <line x1="11" y1="9" x2="10" y2="9" id="Path" stroke="#FF7900" stroke-width="1.5" stroke-linecap="round" stroke-linejoin="round"></line>
                <line x1="13" y1="11" x2="12" y2="11" id="Path" stroke="#FF7900" stroke-width="1.5" stroke-linecap="round" stroke-linejoin="round"></line>
                <line x1="11" y1="13" x2="10" y2="13" id="Path" stroke="#FF7900" stroke-width="1.5" stroke-linecap="round" stroke-linejoin="round"></line>
                <line x1="13" y1="15" x2="12" y2="15" id="Path" stroke="#FF7900" stroke-width="1.5" stroke-linecap="round" stroke-linejoin="round"></line>
            </g>
        </g>
    </g>
</svg>